<svg id="Capa_1" enable-background="new 0 0 511.968 511.968" height="512" viewBox="0 0 511.968 511.968" width="512" xmlns="http://www.w3.org/2000/svg"><g><path d="m267.316 37.848h-22.351c-11.337 0-19.886 10.3-17.797 21.443l8.166 43.569h41.613l8.166-43.569c2.089-11.143-6.459-21.443-17.797-21.443z" fill="#4e5660"/><path d="m347.181 474.384h-182.322c-35.502 0-64.282-28.78-64.282-64.282v-195.377h310.886v195.377c0 35.502-28.78 64.282-64.282 64.282z" fill="#8daee1"/><path d="m347.181 474.384h-182.322c-35.502 0-64.282-28.78-64.282-64.282v-195.377h310.886v195.377c0 35.502-28.78 64.282-64.282 64.282z" fill="#a2ddfd"/><path d="m100.577 214.725v195.377c0 35.502 28.78 64.282 64.282 64.282h52.441c-50.067-44.824-46.529-172.614-39.411-259.659z" fill="#7acdf9"/><path d="m100.577 410.103c0 5.826.789 11.465 2.241 16.831h306.403c1.453-5.366 2.241-11.005 2.241-16.831v-195.378h-310.885z" fill="#8daee1"/><path d="m100.577 214.725v195.377c0 5.826.789 11.465 2.242 16.831h86.133c-19.716-58.931-16.395-147.002-11.062-212.209h-77.313z" fill="#6a95d6"/><path d="m73.645 370.169c-14.874 0-26.932-12.058-26.932-26.932v-31.379l-31.183-31.183c-10.517-10.517-10.517-27.57 0-38.088 10.518-10.518 27.571-10.518 38.089 0l39.071 39.071c5.05 5.051 7.888 11.901 7.888 19.044v42.535c-.001 14.874-12.059 26.932-26.933 26.932z" fill="#4e5660"/><path d="m438.638 370.169c14.874 0 26.932-12.058 26.932-26.932v-31.379l31.183-31.183c10.517-10.517 10.517-27.57 0-38.088-10.518-10.518-27.571-10.518-38.089 0l-39.071 39.071c-5.05 5.051-7.888 11.901-7.888 19.044v42.535c0 14.874 12.058 26.932 26.933 26.932z" fill="#4e5660"/><path d="m421.093 174.539h-330.145c-8.239 0-14.919 6.679-14.919 14.919v10.35c0 8.239 6.679 14.918 14.919 14.918h330.145c8.239 0 14.918-6.679 14.918-14.918v-10.35c0-8.24-6.679-14.919-14.918-14.919z" fill="#a2ddfd"/><path d="m415.141 174.539c-20.584-64.087-84.014-82.508-159-82.508s-138.416 18.422-159 82.508z" fill="#fbf1cf"/><path d="m217.237 93.954c-57.377 6.121-103.19 27.948-120.096 80.585h120.511c-8.777-22.745-10.433-55.142-.415-80.585z" fill="#f5e2a2"/><path d="m269.44 178.635v53.261c0 12.417 10.162 22.963 22.577 22.73 12.04-.226 21.731-10.056 21.731-22.15v43.695c0 12.235 9.919 22.154 22.154 22.154 12.235 0 22.154-9.919 22.154-22.154v-97.537c0-12.043-9.763-21.805-21.806-21.805h-45.004c-12.043 0-21.806 9.763-21.806 21.806z" fill="#f6ee86"/><g><path d="m200.119 377.894c-.045 14.376-14.716 25.985-32.769 25.928s-32.651-11.756-32.606-26.133c.045-14.376 14.716-25.985 32.769-25.928 18.053.056 32.651 11.757 32.606 26.133z" fill="#fff"/><path d="m311.921 378.244c-.045 14.376 14.553 26.076 32.606 26.133s32.724-11.552 32.769-25.928-14.553-26.077-32.606-26.133c-18.053-.057-32.724 11.552-32.769 25.928z" fill="#fff"/><path d="m282.437 358.151c.051-16.287-11.743-17.854-26.298-17.9s-26.359 1.448-26.41 17.735 11.707 29.527 26.262 29.573c14.555.045 26.395-13.121 26.446-29.408z" fill="#4e5660"/></g><path d="m501.904 237.16c-13.449-13.45-35.22-13.452-48.673 0l-34.369 34.369v-49.411h2.124c12.357 0 22.409-10.053 22.409-22.41v-10.343c0-12.356-10.053-22.409-22.409-22.409h-.606c-17.915-48.631-61.493-75.36-132.619-81.213l4.701-25.084c2.953-15.767-9.149-30.311-25.159-30.311h-22.337c-16.042 0-28.108 14.576-25.158 30.311l4.694 25.045c-31.299 2.525-56.879 9.042-77.621 19.73-3.682 1.897-5.129 6.42-3.232 10.103 1.896 3.681 6.42 5.129 10.103 3.231 20.722-10.678 47.098-16.833 80.182-18.675 36.105-2.487 84.978.534 118.942 15.946 24.617 11.17 41.503 27.887 51.367 50.917h-41.154c-4.501-10.401-14.86-17.699-26.895-17.699h-44.977c-12.035 0-22.394 7.298-26.895 17.699h-156.28c4.353-10.105 10.105-19.087 17.181-26.79 2.802-3.05 2.6-7.795-.45-10.597-3.051-2.802-7.796-2.602-10.597.45-9.597 10.448-17.073 22.857-22.28 36.938h-.854c-12.356 0-22.409 10.053-22.409 22.409v10.343c0 12.357 10.053 22.41 22.409 22.41h2.124v49.47l-34.43-34.429c-13.451-13.449-35.221-13.453-48.673 0-13.418 13.419-13.418 35.252 0 48.671l28.968 28.968v28.253c0 27.927 31.568 44.018 54.134 28.182v38.643c0 39.236 31.918 71.743 71.742 71.743h171.852c4.143 0 7.5-3.358 7.5-7.5s-3.357-7.5-7.5-7.5h-171.852c-22.588 0-42.131-13.27-51.255-32.421h284.697c-5.622 11.815-15.251 21.607-27.555 27.264-3.764 1.73-5.412 6.184-3.682 9.947 1.739 3.782 6.201 5.404 9.947 3.682 25.522-11.734 41.803-37.455 41.803-65.214v-38.601c22.564 15.764 54.074-.324 54.074-28.225v-28.253l28.968-28.968c13.418-13.419 13.418-35.252 0-48.671zm-224.186-179.264-5.046 26.926c-11.009-.438-22.473-.422-33.076-.012l-5.045-26.914c-1.223-6.528 3.787-12.548 10.415-12.548h22.337c6.64 0 11.637 6.034 10.415 12.548zm-184.553 285.156c0 10.706-9.012 19.416-19.718 19.416s-19.416-8.71-19.416-19.416v-31.359c0-1.989-.79-3.897-2.196-5.303l-31.164-31.165c-7.57-7.57-7.57-19.888 0-27.458 7.587-7.588 19.87-7.589 27.458 0l39.048 39.048c3.667 3.667 5.988 8.543 5.988 13.729zm183.761-164.503c0-7.881 6.411-14.292 14.292-14.292h44.977c7.881 0 14.292 6.412 14.292 14.292v97.478c0 8.073-6.567 14.641-14.64 14.641s-14.641-6.568-14.641-14.641v-43.668c0-4.142-3.357-7.5-7.5-7.5s-7.5 3.358-7.5 7.5c0 7.923-6.44 14.489-14.357 14.638-8.361.143-14.923-7.147-14.923-15.218zm-185.885 28.569c-4.085 0-7.409-3.324-7.409-7.41v-10.343c0-4.085 3.324-7.409 7.409-7.409h170.885v25.162zm312.036 212.08h-294.133c-1.474-8.875-.499.475-.779-197.08h153.761v9.66c0 22.664 24.282 37.802 44.28 26.31v17.939c0 16.344 13.297 29.641 29.641 29.641s29.64-13.297 29.64-29.641v-53.909h38.376c-.276 195.735.653 188.497-.786 197.08zm-37.591-212.08v-25.162c3.535 0 59.055.002 55.5 0 4.085 0 7.409 3.324 7.409 7.409v10.343c0 4.086-3.324 7.41-7.409 7.41zm125.811 68.106-31.164 31.165c-1.406 1.407-2.196 3.314-2.196 5.303v31.359c0 10.706-8.71 19.416-19.416 19.416s-19.658-8.71-19.658-19.416c0-.644 0-41.865 0-42.509 0-5.186 2.262-10.062 5.929-13.729l39.048-39.048c7.587-7.588 19.87-7.589 27.458 0 7.569 7.571 7.569 19.889-.001 27.459zm-165.627 51.499c-.025 0-.05 0-.075 0-12.703 0-23.005 10.262-23.046 22.976-.013 4.142 3.334 7.511 7.477 7.524h.024c4.13 0 7.485-3.342 7.499-7.476.014-4.435 3.607-8.024 8.048-8.024h.026c4.439.014 8.038 3.636 8.025 8.075-.013 4.142 3.335 7.51 7.477 7.523h.024c4.131 0 7.486-3.343 7.499-7.477.038-12.709-10.269-23.081-22.978-23.121zm-138.991-.435c-.024 0-.05 0-.074 0-12.705 0-23.009 10.263-23.047 22.977-.013 4.142 3.335 7.51 7.477 7.523h.023c4.132 0 7.487-3.343 7.5-7.477.014-4.439 3.61-8.023 8.048-8.023h.026c4.449.014 8.038 3.624 8.023 8.074-.013 4.142 3.334 7.511 7.477 7.524h.024c4.13 0 7.485-3.342 7.499-7.476.041-12.74-10.235-23.082-22.976-23.122zm91.481 9.96c-5.899-3.015-13.063-3.651-22.005-3.68-8.97-.029-16.11.564-22.027 3.542-7.856 3.954-11.857 11.241-11.89 21.66-.063 20.386 15.064 37.02 33.723 37.078h.101c19.247 0 33.791-17.113 33.853-36.865.032-10.42-3.923-17.733-11.755-21.735zm-3.246 21.686c-.036 11.681-8.17 21.914-18.854 21.913-.018 0-.035 0-.052 0-10.388-.032-18.808-9.915-18.77-22.031.021-6.49 2.37-7.672 3.632-8.307 3.844-1.934 10.926-1.951 15.238-1.941 5.874.018 11.785.278 15.226 2.037 1.259.643 3.601 1.839 3.58 8.329z"/></g></svg>