<?xml version="1.0" encoding="UTF-8" standalone="no"?>
<svg
   xmlns:dc="http://purl.org/dc/elements/1.1/"
   xmlns:cc="http://creativecommons.org/ns#"
   xmlns:rdf="http://www.w3.org/1999/02/22-rdf-syntax-ns#"
   xmlns:svg="http://www.w3.org/2000/svg"
   xmlns="http://www.w3.org/2000/svg"
   xmlns:xlink="http://www.w3.org/1999/xlink"
   height="350.00101"
   width="512.00183"
   xml:space="preserve"
   viewBox="0 0 512.00182 350.001"
   y="0px"
   x="0px"
   id="Capa_1"
   version="1.1"><metadata
   id="metadata2072"><rdf:RDF><cc:Work
       rdf:about=""><dc:format>image/svg+xml</dc:format><dc:type
         rdf:resource="http://purl.org/dc/dcmitype/StillImage" /><dc:title></dc:title></cc:Work></rdf:RDF></metadata><defs
   id="defs2070"><linearGradient
     id="linearGradient2667"><stop
       id="stop2663"
       offset="0"
       style="stop-color:#0066ff;stop-opacity:1" /><stop
       id="stop2665"
       offset="1"
       style="stop-color:#8d5fd3;stop-opacity:1" /></linearGradient><linearGradient
     id="linearGradient2657"><stop
       style="stop-color:#0c99ff;stop-opacity:1"
       offset="0"
       id="stop2653" /><stop
       style="stop-color:#4f4fff;stop-opacity:1"
       offset="1"
       id="stop2655" /></linearGradient><linearGradient
     y2="186.09302"
     x2="247.65956"
     y1="363.17642"
     x1="248.30136"
     gradientUnits="userSpaceOnUse"
     id="linearGradient2651"
     xlink:href="#linearGradient2667" /><linearGradient
     y2="335.46967"
     x2="490.51273"
     y1="454.80847"
     x1="41.377098"
     gradientUnits="userSpaceOnUse"
     id="linearGradient2661"
     xlink:href="#linearGradient2657" /><linearGradient
     y2="168.12804"
     x2="250.22598"
     y1="342.64502"
     x1="258.56708"
     gradientUnits="userSpaceOnUse"
     id="linearGradient2669"
     xlink:href="#linearGradient2667" /><linearGradient
     y2="186.09302"
     x2="247.65956"
     y1="363.17642"
     x1="248.30136"
     gradientUnits="userSpaceOnUse"
     id="linearGradient2671"
     xlink:href="#linearGradient2667" /><linearGradient
     y2="335.46967"
     x2="490.51273"
     y1="454.80847"
     x1="41.377098"
     gradientUnits="userSpaceOnUse"
     id="linearGradient2673"
     xlink:href="#linearGradient2657" /><linearGradient
     y2="335.46967"
     x2="490.51273"
     y1="454.80847"
     x1="41.377098"
     gradientUnits="userSpaceOnUse"
     id="linearGradient2675"
     xlink:href="#linearGradient2657" /></defs>
<g
   transform="translate(3.6718723e-4,-81)"
   style="fill:url(#linearGradient2651);fill-opacity:1;stroke:none"
   id="g2029">
	<g
   style="fill:url(#linearGradient2671);fill-opacity:1;stroke:none"
   id="g2027">
		<path
   style="fill:url(#linearGradient2669);fill-opacity:1;stroke:none"
   id="path2025"
   d="m 506.239,180.613 c -4.822,-3.77 -11.45,-4.231 -16.746,-1.169 L 364.992,251.424 268.924,88.385 C 266.227,83.809 261.312,81 256,81 c -5.312,0 -10.227,2.809 -12.924,7.385 L 147.009,251.424 22.508,179.444 c -5.299,-3.063 -11.926,-2.601 -16.746,1.169 -4.821,3.769 -6.869,10.088 -5.176,15.968 l 19.196,66.66 141.556,81.84 84.958,-72.092 c 5.598,-4.75 13.813,-4.75 19.41,0 l 84.958,72.092 141.556,-81.84 19.195,-66.66 c 1.693,-5.88 -0.354,-12.199 -5.176,-15.968 z" />
	</g>
</g>
<g
   transform="translate(3.6718723e-4,-81)"
   style="fill:url(#linearGradient2661);fill-opacity:1;stroke:none"
   id="g2035">
	<g
   style="fill:url(#linearGradient2675);fill-opacity:1;stroke:none"
   id="g2033">
		<path
   style="fill:url(#linearGradient2673);fill-opacity:1;stroke:none"
   id="path2031"
   d="m 356.527,376.344 c -5.5,3.18 -12.39,2.543 -17.213,-1.549 l -83.313,-70.696 -83.313,70.696 c -4.835,4.102 -11.724,4.722 -17.213,1.549 L 31.753,304.816 64.964,420.151 c 1.85,6.425 7.729,10.85 14.414,10.85 h 353.244 c 6.686,0 12.564,-4.425 14.414,-10.85 l 33.211,-115.335 z" />
	</g>
</g>
<g
   transform="translate(3.6718723e-4,-81)"
   id="g2037">
</g>
<g
   transform="translate(3.6718723e-4,-81)"
   id="g2039">
</g>
<g
   transform="translate(3.6718723e-4,-81)"
   id="g2041">
</g>
<g
   transform="translate(3.6718723e-4,-81)"
   id="g2043">
</g>
<g
   transform="translate(3.6718723e-4,-81)"
   id="g2045">
</g>
<g
   transform="translate(3.6718723e-4,-81)"
   id="g2047">
</g>
<g
   transform="translate(3.6718723e-4,-81)"
   id="g2049">
</g>
<g
   transform="translate(3.6718723e-4,-81)"
   id="g2051">
</g>
<g
   transform="translate(3.6718723e-4,-81)"
   id="g2053">
</g>
<g
   transform="translate(3.6718723e-4,-81)"
   id="g2055">
</g>
<g
   transform="translate(3.6718723e-4,-81)"
   id="g2057">
</g>
<g
   transform="translate(3.6718723e-4,-81)"
   id="g2059">
</g>
<g
   transform="translate(3.6718723e-4,-81)"
   id="g2061">
</g>
<g
   transform="translate(3.6718723e-4,-81)"
   id="g2063">
</g>
<g
   transform="translate(3.6718723e-4,-81)"
   id="g2065">
</g>
</svg>